<svg width="40" height="39" viewBox="0 0 40 39" fill="none" xmlns="http://www.w3.org/2000/svg">
<path d="M8.19835 35.0592L0 24.7892L2.00551 16.0068L8.19835 35.0592Z" fill="#0F4C81"/>
<path d="M18.9642 0.337463L2.92017 11.9959L3.92292 7.57713L18.9642 0.337463Z" fill="#0F4C81"/>
<path d="M36.7383 11.9959L20.6832 0.337463L35.7245 7.57713L36.7383 11.9959Z" fill="#0F4C81"/>
<path d="M39.6584 24.7892L31.4601 35.0592L37.6529 16.0068L39.6584 24.7892Z" fill="#0F4C81"/>
<path d="M31.2837 35.2906L28.6501 38.5854H11.0082L8.37463 35.2906H31.2837Z" fill="#0F4C81"/>
<path d="M19.5703 30.7066H11.5923L6.5014 15.0482L9.33336 12.9876L19.5703 30.7066Z" fill="#0F4C81"/>
<path d="M29.4987 12.4036H10.1488L19.8237 5.36224L29.4987 12.4036Z" fill="#0F4C81"/>
<path d="M33.146 15.0482L28.0551 30.7066H20.0771L30.3141 12.9876L33.146 15.0482Z" fill="#0F4C81"/>
<path d="M22.7218 16.9766L19.8237 22.0014L16.9257 16.9766H22.7218Z" fill="#FF9800"/>
</svg>
