<svg width="164" height="41" viewBox="0 0 164 41" fill="none" xmlns="http://www.w3.org/2000/svg">
<path d="M63.6364 0.5C56.9808 0.5 51.7356 5.34849 51.7356 12.5882C51.7356 18.6157 55.4711 24.4229 63.5372 24.4229C71.6034 24.4229 75.2397 18.4945 75.3058 12.5551C75.372 6.59367 71.4711 0.566116 63.6364 0.5ZM63.5372 20.4559C58.1268 20.4559 56.0992 16.4229 56.0001 12.6543C55.8678 8.10331 58.7549 4.42287 63.6364 4.42287C68.9147 4.52204 71.1075 8.7865 71.0414 12.6212C70.9753 16.4008 68.9477 20.4559 63.5372 20.4559Z" fill="#0F4C81"/>
<path d="M87.7246 7.48627C85.697 7.48627 84.0552 8.30169 82.4133 9.91051L82.1598 7.70665H78.5896V23.905H82.5565V15.6405C82.5565 13.1832 84.2315 11.1226 86.6888 11.1226C89.2452 11.1226 90.5896 12.9959 90.5896 15.4532V23.905H94.5896V15.4202C94.5786 10.3292 91.5262 7.48627 87.7246 7.48627Z" fill="#0F4C81"/>
<path d="M111.262 9.94357C110.314 8.26864 107.659 7.35404 105.951 7.35404C101.234 7.35404 97.7191 10.2411 97.7191 15.8058C97.7191 21.1171 101.289 24.2576 106.039 24.2576C108.011 24.2576 110.006 23.6075 111.251 21.6681L111.515 23.894H115.251V0.995911H111.251V9.94357H111.262ZM106.314 20.5551C103.758 20.5551 101.73 18.6157 101.73 15.8058C101.73 12.8857 103.758 11.0896 106.314 11.0896C108.838 11.0896 110.997 12.9849 110.997 15.8058C110.997 18.7259 108.838 20.5551 106.314 20.5551Z" fill="#0F4C81"/>
<path d="M126.964 7.42017C121.818 7.42017 118.612 11.2218 118.612 15.8389C118.612 20.489 121.763 24.2576 126.997 24.2576C132.243 24.2576 135.416 20.489 135.416 15.8389C135.416 11.2218 132.11 7.42017 126.964 7.42017ZM126.997 20.5882C124.077 20.5882 122.601 18.2962 122.601 15.8389C122.601 13.4147 124.11 11.0565 126.997 11.0565C129.686 11.0565 131.394 13.4147 131.394 15.8389C131.394 18.2962 129.917 20.5882 126.997 20.5882Z" fill="#0F4C81"/>
<path d="M142.832 0.995911H138.865V23.905H142.832V0.995911Z" fill="#0F4C81"/>
<path d="M154.634 7.42017C149.488 7.42017 146.281 11.2218 146.281 15.8389C146.281 20.489 149.433 24.2576 154.667 24.2576C159.912 24.2576 163.085 20.489 163.085 15.8389C163.085 11.2218 159.78 7.42017 154.634 7.42017ZM154.667 20.5882C151.747 20.5882 150.27 18.2962 150.27 15.8389C150.27 13.4147 151.78 11.0565 154.667 11.0565C157.355 11.0565 159.063 13.4147 159.063 15.8389C159.052 18.2962 157.576 20.5882 154.667 20.5882Z" fill="#0F4C81"/>
<path d="M61.3995 33.7562C60.0552 33.5578 58.9202 33.2603 58.9202 32.2024C58.9202 31.1666 59.9119 30.5606 61.2893 30.5606C62.3582 30.5716 63.3389 31.0234 63.8128 31.7727L65.0579 30.8912C64.1984 29.4366 62.7218 29.062 61.2453 29.062C59.405 29.062 57.2893 29.9325 57.3004 32.1804C57.3004 34.5055 59.2287 35.0564 61.2563 35.354C62.6888 35.5523 63.8678 35.96 63.8678 37.1391C63.8678 38.5055 62.5125 38.9462 61.2783 38.9462C60.0993 38.9462 58.821 38.4834 58.0937 37.1611L56.8706 38.0316C57.8072 39.8608 59.3059 40.5 61.2673 40.5C63.394 40.5 65.4877 39.5854 65.4987 37.1501C65.5097 34.6818 63.5042 34.0647 61.3995 33.7562Z" fill="black"/>
<path d="M73.8182 34.1529L70.9973 29.3595H69.0469V29.4366L72.9918 35.7727V40.2245H74.6337V35.7727L78.6888 29.4366V29.3595H76.7163L73.8182 34.1529Z" fill="black"/>
<path d="M86.6007 33.7562C85.2563 33.5578 84.1214 33.2603 84.1214 32.2024C84.1214 31.1666 85.1131 30.5606 86.4905 30.5606C87.5594 30.5716 88.5401 31.0234 89.0139 31.7727L90.2591 30.8912C89.3996 29.4366 87.923 29.062 86.4464 29.062C84.6062 29.062 82.4905 29.9325 82.5015 32.1804C82.5015 34.5055 84.4299 35.0564 86.4574 35.354C87.89 35.5523 89.069 35.96 89.069 37.1391C89.069 38.5055 87.7137 38.9462 86.4795 38.9462C85.3004 38.9462 84.0222 38.4834 83.2949 37.1611L82.0718 38.0316C83.0084 39.8608 84.507 40.5 86.4685 40.5C88.5952 40.5 90.6889 39.5854 90.6999 37.1501C90.7109 34.6818 88.7054 34.0647 86.6007 33.7562Z" fill="black"/>
<path d="M94.6227 30.9242H97.9836V40.2245H99.6364V30.9242H102.986V29.3595C100.055 29.3595 97.5648 29.3595 94.6337 29.3595V30.9242H94.6227Z" fill="black"/>
<path d="M109.245 35.5964H114.887V33.9765H109.245V31.0454H115.119V29.3484H107.614C107.614 32.9628 107.614 36.5991 107.614 40.2245H115.163V38.5165H109.245V35.5964Z" fill="black"/>
<path d="M125.653 34.4724L122.281 29.3815C121.62 29.3815 121.025 29.3815 120.386 29.3815V40.2576H122.017V31.916L125.444 37.051H125.796L129.267 31.916V40.2576H130.898V29.3815H129.003L125.653 34.4724Z" fill="black"/>
<path d="M144.948 29.3595H143.328V40.2355H144.948V29.3595Z" fill="black"/>
<path d="M149.598 29.3595V30.9242H152.959V40.2245H154.612V30.9242H157.962V29.3595C155.008 29.3595 152.529 29.3595 149.598 29.3595Z" fill="black"/>
<path d="M8.19835 36.0592L0 25.7892L2.00551 17.0068L8.19835 36.0592Z" fill="#0F4C81"/>
<path d="M18.9642 1.33746L2.92017 12.9959L3.92292 8.57713L18.9642 1.33746Z" fill="#0F4C81"/>
<path d="M36.7383 12.9959L20.6832 1.33746L35.7245 8.57713L36.7383 12.9959Z" fill="#0F4C81"/>
<path d="M39.6584 25.7892L31.4601 36.0592L37.6529 17.0068L39.6584 25.7892Z" fill="#0F4C81"/>
<path d="M31.2837 36.2906L28.6501 39.5854H11.0082L8.37463 36.2906H31.2837Z" fill="#0F4C81"/>
<path d="M19.5703 31.7066H11.5923L6.5014 16.0482L9.33336 13.9876L19.5703 31.7066Z" fill="#0F4C81"/>
<path d="M29.4987 13.4036H10.1488L19.8237 6.36224L29.4987 13.4036Z" fill="#0F4C81"/>
<path d="M33.146 16.0482L28.0551 31.7066H20.0771L30.3141 13.9876L33.146 16.0482Z" fill="#0F4C81"/>
<path d="M22.7218 17.9766L19.8237 23.0014L16.9257 17.9766H22.7218Z" fill="#FF9800"/>
</svg>
