<svg width="164" height="40" viewBox="0 0 164 40" fill="none" xmlns="http://www.w3.org/2000/svg">
<path d="M63.6364 0C56.9807 0 51.7355 4.84849 51.7355 12.0882C51.7355 18.1157 55.4711 23.9229 63.5372 23.9229C71.6033 23.9229 75.2397 17.9945 75.3058 12.0551C75.3719 6.09367 71.4711 0.0661157 63.6364 0ZM63.5372 19.9559C58.1267 19.9559 56.0992 15.9229 56 12.1543C55.8678 7.60331 58.7548 3.92287 63.6364 3.92287C68.9146 4.02204 71.1074 8.2865 71.0413 12.1212C70.9752 15.9008 68.9477 19.9559 63.5372 19.9559Z" fill="#F4F4F4"/>
<path d="M87.7245 6.98633C85.697 6.98633 84.0551 7.80175 82.4132 9.41057L82.1598 7.20671H78.5895V23.4051H82.5565V15.1406C82.5565 12.6833 84.2314 10.6227 86.6887 10.6227C89.2452 10.6227 90.5895 12.496 90.5895 14.9533V23.4051H94.5895V14.9202C94.5785 9.8293 91.5262 6.98633 87.7245 6.98633Z" fill="#F4F4F4"/>
<path d="M111.262 9.44375C110.314 7.76882 107.658 6.85422 105.95 6.85422C101.234 6.85422 97.719 9.74127 97.719 15.306C97.719 20.6173 101.289 23.7578 106.039 23.7578C108.011 23.7578 110.005 23.1077 111.251 21.1683L111.515 23.3942H115.251V0.496094H111.251V9.44375H111.262ZM106.314 20.0553C103.758 20.0553 101.73 18.1159 101.73 15.306C101.73 12.3859 103.758 10.5898 106.314 10.5898C108.837 10.5898 110.997 12.4851 110.997 15.306C110.997 18.2261 108.837 20.0553 106.314 20.0553Z" fill="#F4F4F4"/>
<path d="M126.964 6.91992C121.818 6.91992 118.612 10.7216 118.612 15.3387C118.612 19.9888 121.763 23.7574 126.997 23.7574C132.242 23.7574 135.416 19.9888 135.416 15.3387C135.416 10.7216 132.11 6.91992 126.964 6.91992ZM126.997 20.088C124.077 20.088 122.601 17.796 122.601 15.3387C122.601 12.9144 124.11 10.5563 126.997 10.5563C129.686 10.5563 131.394 12.9144 131.394 15.3387C131.394 17.796 129.917 20.088 126.997 20.088Z" fill="#F4F4F4"/>
<path d="M142.832 0.496094H138.865V23.4052H142.832V0.496094Z" fill="#F4F4F4"/>
<path d="M154.634 6.91992C149.488 6.91992 146.281 10.7216 146.281 15.3387C146.281 19.9888 149.433 23.7574 154.667 23.7574C159.912 23.7574 163.085 19.9888 163.085 15.3387C163.085 10.7216 159.78 6.91992 154.634 6.91992ZM154.667 20.088C151.747 20.088 150.27 17.796 150.27 15.3387C150.27 12.9144 151.78 10.5563 154.667 10.5563C157.355 10.5563 159.063 12.9144 159.063 15.3387C159.052 17.796 157.576 20.088 154.667 20.088Z" fill="#F4F4F4"/>
<path d="M61.3994 33.2562C60.0551 33.0579 58.9201 32.7604 58.9201 31.7025C58.9201 30.6667 59.9118 30.0606 61.2892 30.0606C62.3581 30.0717 63.3388 30.5234 63.8126 31.2728L65.0578 30.3912C64.1983 28.9367 62.7217 28.562 61.2451 28.562C59.4049 28.562 57.2892 29.4325 57.3002 31.6805C57.3002 34.0055 59.2286 34.5565 61.2562 34.854C62.6887 35.0524 63.8677 35.4601 63.8677 36.6391C63.8677 38.0055 62.5124 38.4463 61.2782 38.4463C60.0991 38.4463 58.8209 37.9835 58.0936 36.6612L56.8705 37.5317C57.8071 39.3609 59.3057 40 61.2672 40C63.3939 40 65.4876 39.0854 65.4986 36.6502C65.5096 34.1818 63.5041 33.5648 61.3994 33.2562Z" fill="#F4F4F4"/>
<path d="M73.8182 33.6528L70.9972 28.8594H69.0468V28.9365L72.9917 35.2726V39.7244H74.6336V35.2726L78.6887 28.9365V28.8594H76.7162L73.8182 33.6528Z" fill="#F4F4F4"/>
<path d="M86.6005 33.2562C85.2562 33.0579 84.1212 32.7604 84.1212 31.7025C84.1212 30.6667 85.1129 30.0606 86.4903 30.0606C87.5592 30.0717 88.5399 30.5234 89.0137 31.2728L90.2589 30.3912C89.3994 28.9367 87.9228 28.562 86.4462 28.562C84.606 28.562 82.4903 29.4325 82.5013 31.6805C82.5013 34.0055 84.4297 34.5565 86.4573 34.854C87.8898 35.0524 89.0688 35.4601 89.0688 36.6391C89.0688 38.0055 87.7135 38.4463 86.4793 38.4463C85.3002 38.4463 84.022 37.9835 83.2947 36.6612L82.0716 37.5317C83.0082 39.3609 84.5069 40 86.4683 40C88.595 40 90.6887 39.0854 90.6997 36.6502C90.7107 34.1818 88.7052 33.5648 86.6005 33.2562Z" fill="#F4F4F4"/>
<path d="M94.6226 30.4241H97.9834V39.7244H99.6363V30.4241H102.986V28.8594C100.055 28.8594 97.5647 28.8594 94.6336 28.8594V30.4241H94.6226Z" fill="#F4F4F4"/>
<path d="M109.245 35.0966H114.887V33.4767H109.245V30.5456H115.118V28.8486H107.614C107.614 32.463 107.614 36.0993 107.614 39.7247H115.163V38.0167H109.245V35.0966Z" fill="#F4F4F4"/>
<path d="M125.653 33.9723L122.281 28.8813C121.62 28.8813 121.025 28.8813 120.386 28.8813V39.7574H122.017V31.4158L125.444 36.5508H125.796L129.267 31.4158V39.7574H130.898V28.8813H129.003L125.653 33.9723Z" fill="#F4F4F4"/>
<path d="M144.948 28.8594H143.328V39.7354H144.948V28.8594Z" fill="#F4F4F4"/>
<path d="M149.598 28.8594V30.4241H152.959V39.7244H154.612V30.4241H157.961V28.8594C155.008 28.8594 152.529 28.8594 149.598 28.8594Z" fill="#F4F4F4"/>
<path d="M8.19835 35.5592L0 25.2892L2.00551 16.5068L8.19835 35.5592Z" fill="#F4F4F4"/>
<path d="M18.9642 0.837402L2.92017 12.4958L3.92292 8.07707L18.9642 0.837402Z" fill="#F4F4F4"/>
<path d="M36.7383 12.4958L20.6832 0.837402L35.7245 8.07707L36.7383 12.4958Z" fill="#F4F4F4"/>
<path d="M39.6584 25.2892L31.46 35.5592L37.6529 16.5068L39.6584 25.2892Z" fill="#F4F4F4"/>
<path d="M31.2837 35.7905L28.6501 39.0853H11.0082L8.37463 35.7905H31.2837Z" fill="#F4F4F4"/>
<path d="M19.5703 31.2063H11.5923L6.5014 15.5479L9.33336 13.4873L19.5703 31.2063Z" fill="#F4F4F4"/>
<path d="M29.4987 12.9036H10.1488L19.8237 5.8623L29.4987 12.9036Z" fill="#F4F4F4"/>
<path d="M33.146 15.5479L28.055 31.2063H20.0771L30.314 13.4873L33.146 15.5479Z" fill="#F4F4F4"/>
<path d="M22.7217 17.4766L19.8237 22.5014L16.9256 17.4766H22.7217Z" fill="#F4F4F4"/>
</svg>
