<svg width="1440" height="681" viewBox="0 0 1440 681" fill="none" xmlns="http://www.w3.org/2000/svg">
<mask id="mask0_87_18" style="mask-type:alpha" maskUnits="userSpaceOnUse" x="0" y="0" width="1440" height="681">
<rect width="1440" height="681" fill="#D9D9D9"/>
</mask>
<g mask="url(#mask0_87_18)">
<g filter="url(#filter0_f_87_18)">
<path d="M1485.71 633.08L1178.12 521.027L1428.96 310.679L1485.71 633.08Z" fill="#FF9800"/>
</g>
<g filter="url(#filter1_f_87_18)">
<path d="M427.707 791.08L120.124 679.027L370.956 468.679L427.707 791.08Z" fill="#CCF3FF"/>
</g>
<g filter="url(#filter2_f_87_18)">
<path d="M149.096 211.636L194.133 377.153L73.3091 498.915L-92.5513 455.16L-137.588 289.642L-16.7647 167.881L149.096 211.636Z" fill="#8BC34A"/>
</g>
<g filter="url(#filter3_f_87_18)">
<path d="M1515.1 -13.3638L1560.13 152.153L1439.31 273.915L1273.45 230.16L1228.41 64.6425L1349.24 -57.1192L1515.1 -13.3638Z" fill="#CCF3FF"/>
</g>
<g filter="url(#filter4_f_87_18)">
<path d="M479.716 -178.399L578.007 -95.962L686.782 -163.967L638.753 -45.0134L737.044 37.4232L609.07 28.5042L561.042 147.458L529.978 22.992L402.005 14.073L510.78 -53.9324L479.716 -178.399Z" fill="#EBEE5E"/>
</g>
</g>
<defs>
<filter id="filter0_f_87_18" x="978.124" y="110.68" width="707.583" height="722.401" filterUnits="userSpaceOnUse" color-interpolation-filters="sRGB">
<feFlood flood-opacity="0" result="BackgroundImageFix"/>
<feBlend mode="normal" in="SourceGraphic" in2="BackgroundImageFix" result="shape"/>
<feGaussianBlur stdDeviation="100" result="effect1_foregroundBlur_87_18"/>
</filter>
<filter id="filter1_f_87_18" x="-79.8758" y="268.68" width="707.583" height="722.401" filterUnits="userSpaceOnUse" color-interpolation-filters="sRGB">
<feFlood flood-opacity="0" result="BackgroundImageFix"/>
<feBlend mode="normal" in="SourceGraphic" in2="BackgroundImageFix" result="shape"/>
<feGaussianBlur stdDeviation="100" result="effect1_foregroundBlur_87_18"/>
</filter>
<filter id="filter2_f_87_18" x="-337.588" y="-32.1192" width="731.721" height="731.034" filterUnits="userSpaceOnUse" color-interpolation-filters="sRGB">
<feFlood flood-opacity="0" result="BackgroundImageFix"/>
<feBlend mode="normal" in="SourceGraphic" in2="BackgroundImageFix" result="shape"/>
<feGaussianBlur stdDeviation="100" result="effect1_foregroundBlur_87_18"/>
</filter>
<filter id="filter3_f_87_18" x="1028.41" y="-257.119" width="731.721" height="731.034" filterUnits="userSpaceOnUse" color-interpolation-filters="sRGB">
<feFlood flood-opacity="0" result="BackgroundImageFix"/>
<feBlend mode="normal" in="SourceGraphic" in2="BackgroundImageFix" result="shape"/>
<feGaussianBlur stdDeviation="100" result="effect1_foregroundBlur_87_18"/>
</filter>
<filter id="filter4_f_87_18" x="202.005" y="-378.399" width="735.039" height="725.857" filterUnits="userSpaceOnUse" color-interpolation-filters="sRGB">
<feFlood flood-opacity="0" result="BackgroundImageFix"/>
<feBlend mode="normal" in="SourceGraphic" in2="BackgroundImageFix" result="shape"/>
<feGaussianBlur stdDeviation="100" result="effect1_foregroundBlur_87_18"/>
</filter>
</defs>
</svg>
